<mxfile host="65bd71144e">
    <diagram id="e-u5Sl0ihWQsqMuzJuF6" name="Page-1">
        <mxGraphModel dx="1356" dy="1314" grid="1" gridSize="10" guides="1" tooltips="1" connect="1" arrows="1" fold="1" page="1" pageScale="1" pageWidth="850" pageHeight="1100" math="0" shadow="0">
            <root>
                <mxCell id="0"/>
                <mxCell id="1" parent="0"/>
                <mxCell id="2" value="&lt;font color=&quot;#ffffff&quot; style=&quot;font-size: 11px&quot;&gt;&lt;span style=&quot;font-family: &amp;#34;arial&amp;#34;&quot;&gt;Giải&lt;/span&gt;&lt;span style=&quot;font-family: &amp;#34;arial&amp;#34;&quot;&gt; &lt;/span&gt;&lt;span style=&quot;font-family: &amp;#34;arial&amp;#34;&quot;&gt;ph&lt;/span&gt;&lt;span style=&quot;font-family: &amp;#34;arial&amp;#34;&quot;&gt;ươ&lt;/span&gt;&lt;span style=&quot;font-family: &amp;#34;arial&amp;#34;&quot;&gt;ng &lt;/span&gt;&lt;span style=&quot;font-family: &amp;#34;arial&amp;#34;&quot;&gt;trình&lt;/span&gt;&lt;span style=&quot;font-family: &amp;#34;arial&amp;#34;&quot;&gt; &lt;/span&gt;&lt;span style=&quot;font-family: &amp;#34;arial&amp;#34;&quot;&gt;bậc&lt;/span&gt;&lt;span style=&quot;font-family: &amp;#34;arial&amp;#34;&quot;&gt; &lt;/span&gt;&lt;span style=&quot;font-family: &amp;#34;arial&amp;#34;&quot;&gt;nhất&lt;/span&gt;&lt;span style=&quot;font-family: &amp;#34;arial&amp;#34;&quot;&gt; ax&lt;br&gt;+ b = 0&lt;/span&gt;&lt;/font&gt;" style="text;html=1;align=center;verticalAlign=middle;resizable=0;points=[];autosize=1;strokeColor=none;fillColor=none;" vertex="1" parent="1">
                    <mxGeometry x="-560" y="-1100" width="160" height="40" as="geometry"/>
                </mxCell>
                <mxCell id="5" style="edgeStyle=none;html=1;exitX=0.5;exitY=1;exitDx=0;exitDy=0;entryX=0.5;entryY=0;entryDx=0;entryDy=0;fontSize=11;fontColor=#FFFFFF;" edge="1" parent="1" source="3" target="4">
                    <mxGeometry relative="1" as="geometry"/>
                </mxCell>
                <mxCell id="3" value="Start" style="ellipse;whiteSpace=wrap;html=1;fontSize=11;fontColor=#FFFFFF;" vertex="1" parent="1">
                    <mxGeometry x="-540" y="-1040" width="100" height="50" as="geometry"/>
                </mxCell>
                <mxCell id="7" style="edgeStyle=none;html=1;entryX=0.5;entryY=0;entryDx=0;entryDy=0;fontSize=11;fontColor=#FFFFFF;" edge="1" parent="1" source="4" target="6">
                    <mxGeometry relative="1" as="geometry"/>
                </mxCell>
                <mxCell id="4" value="Nhập a và b" style="shape=parallelogram;perimeter=parallelogramPerimeter;whiteSpace=wrap;html=1;fixedSize=1;fontSize=11;fontColor=#FFFFFF;" vertex="1" parent="1">
                    <mxGeometry x="-550" y="-950" width="120" height="70" as="geometry"/>
                </mxCell>
                <mxCell id="9" style="edgeStyle=none;html=1;entryX=0.5;entryY=0;entryDx=0;entryDy=0;fontSize=11;fontColor=#FFFFFF;" edge="1" parent="1" source="6" target="8">
                    <mxGeometry relative="1" as="geometry"/>
                </mxCell>
                <mxCell id="6" value="x = -b/a" style="rounded=0;whiteSpace=wrap;html=1;fontSize=11;fontColor=#FFFFFF;" vertex="1" parent="1">
                    <mxGeometry x="-550" y="-810" width="120" height="60" as="geometry"/>
                </mxCell>
                <mxCell id="12" style="edgeStyle=none;html=1;entryX=0.569;entryY=-0.073;entryDx=0;entryDy=0;entryPerimeter=0;fontSize=11;fontColor=#FFFFFF;" edge="1" parent="1" source="8" target="11">
                    <mxGeometry relative="1" as="geometry"/>
                </mxCell>
                <mxCell id="8" value="Display x" style="shape=parallelogram;perimeter=parallelogramPerimeter;whiteSpace=wrap;html=1;fixedSize=1;fontSize=11;fontColor=#FFFFFF;" vertex="1" parent="1">
                    <mxGeometry x="-550" y="-690" width="120" height="60" as="geometry"/>
                </mxCell>
                <mxCell id="11" value="End" style="ellipse;whiteSpace=wrap;html=1;fontSize=11;fontColor=#FFFFFF;" vertex="1" parent="1">
                    <mxGeometry x="-550" y="-560" width="100" height="50" as="geometry"/>
                </mxCell>
            </root>
        </mxGraphModel>
    </diagram>
</mxfile>